[Header]
FileType HTR
DataType HTRS
FileVersion 1
NumSegments 64
NumFrames 4
DataFrameRate 30
EulerRotationOrder ZYX
CalibrationUnits mm
RotationUnits Degrees
GlobalAxisofGravity Y
BoneLengthAxis Y
ScaleFactor 1.0
[SegmentNames&Hierarchy]
Hips	GLOBAL
Spine	Hips
Spine1	Spine
Spine2	Spine1
Neck	Spine2
Head	Neck
LeftEye	Head
RightEye	Head
LeftShoulder	Spine2
LeftArm	LeftShoulder
LeftForeArm	LeftArm
LeftHand	LeftForeArm
LeftHandThumb1	LeftHand
LeftHandThumb2	LeftHandThumb1
LeftHandThumb3	LeftHandThumb2
LeftHandThumb4	LeftHandThumb3
LeftHandIndex1	LeftHand
LeftHandIndex2	LeftHandIndex1
LeftHandIndex3	LeftHandIndex2
LeftHandIndex4	LeftHandIndex3
LeftHandMiddle1	LeftHand
LeftHandMiddle2	LeftHandMiddle1
LeftHandMiddle3	LeftHandMiddle2
LeftHandMiddle4	LeftHandMiddle3
LeftHandRing1	LeftHand
LeftHandRing2	LeftHandRing1
LeftHandRing3	LeftHandRing2
LeftHandRing4	LeftHandRing3
LeftHandPinky1	LeftHand
LeftHandPinky2	LeftHandPinky1
LeftHandPinky3	LeftHandPinky2
LeftHandPinky4	LeftHandPinky3
RightShoulder	Spine2
RightArm	RightShoulder
RightForeArm	RightArm
RightHand	RightForeArm
RightHandPinky1	RightHand
RightHandPinky2	RightHandPinky1
RightHandPinky3	RightHandPinky2
RightHandPinky4	RightHandPinky3
RightHandRing1	RightHand
RightHandRing2	RightHandRing1
RightHandRing3	RightHandRing2
RightHandRing4	RightHandRing3
RightHandMiddle1	RightHand
RightHandMiddle2	RightHandMiddle1
RightHandMiddle3	RightHandMiddle2
RightHandMiddle4	RightHandMiddle3
RightHandIndex1	RightHand
RightHandIndex2	RightHandIndex1
RightHandIndex3	RightHandIndex2
RightHandIndex4	RightHandIndex3
RightHandThumb1	RightHand
RightHandThumb2	RightHandThumb1
RightHandThumb3	RightHandThumb2
RightHandThumb4	RightHandThumb3
LeftUpLeg	Hips
LeftLeg	LeftUpLeg
LeftFoot	LeftLeg
LeftToeBase	LeftFoot
RightUpLeg	Hips
RightLeg	RightUpLeg
RightFoot	RightLeg
RightToeBase	RightFoot
[BasePosition]
Hips	0	0	0	0	0	0	1
Spine	0	0	0	0	0	0	1
Spine1	0	0	0	0	0	0	1
Spine2	0	0	0	0	0	0	1
Neck	0	0	0	0	0	0	1
Head	0	0	0	0	0	0	1
LeftEye	0	0	0	0	0	0	1
RightEye	0	0	0	0	0	0	1
LeftShoulder	0	0	0	0	0	0	1
LeftArm	0	0	0	0	0	0	1
LeftForeArm	0	0	0	0	0	0	1
LeftHand	0	0	0	0	0	0	1
LeftHandThumb1	0	0	0	0	0	0	1
LeftHandThumb2	0	0	0	0	0	0	1
LeftHandThumb3	0	0	0	0	0	0	1
LeftHandThumb4	0	0	0	0	0	0	1
LeftHandIndex1	0	0	0	0	0	0	1
LeftHandIndex2	0	0	0	0	0	0	1
LeftHandIndex3	0	0	0	0	0	0	1
LeftHandIndex4	0	0	0	0	0	0	1
LeftHandMiddle1	0	0	0	0	0	0	1
LeftHandMiddle2	0	0	0	0	0	0	1
LeftHandMiddle3	0	0	0	0	0	0	1
LeftHandMiddle4	0	0	0	0	0	0	1
LeftHandRing1	0	0	0	0	0	0	1
LeftHandRing2	0	0	0	0	0	0	1
LeftHandRing3	0	0	0	0	0	0	1
LeftHandRing4	0	0	0	0	0	0	1
LeftHandPinky1	0	0	0	0	0	0	1
LeftHandPinky2	0	0	0	0	0	0	1
LeftHandPinky3	0	0	0	0	0	0	1
LeftHandPinky4	0	0	0	0	0	0	1
RightShoulder	0	0	0	0	0	0	1
RightArm	0	0	0	0	0	0	1
RightForeArm	0	0	0	0	0	0	1
RightHand	0	0	0	0	0	0	1
RightHandPinky1	0	0	0	0	0	0	1
RightHandPinky2	0	0	0	0	0	0	1
RightHandPinky3	0	0	0	0	0	0	1
RightHandPinky4	0	0	0	0	0	0	1
RightHandRing1	0	0	0	0	0	0	1
RightHandRing2	0	0	0	0	0	0	1
RightHandRing3	0	0	0	0	0	0	1
RightHandRing4	0	0	0	0	0	0	1
RightHandMiddle1	0	0	0	0	0	0	1
RightHandMiddle2	0	0	0	0	0	0	1
RightHandMiddle3	0	0	0	0	0	0	1
RightHandMiddle4	0	0	0	0	0	0	1
RightHandIndex1	0	0	0	0	0	0	1
RightHandIndex2	0	0	0	0	0	0	1
RightHandIndex3	0	0	0	0	0	0	1
RightHandIndex4	0	0	0	0	0	0	1
RightHandThumb1	0	0	0	0	0	0	1
RightHandThumb2	0	0	0	0	0	0	1
RightHandThumb3	0	0	0	0	0	0	1
RightHandThumb4	0	0	0	0	0	0	1
LeftUpLeg	0	0	0	0	0	0	1
LeftLeg	0	0	0	0	0	0	1
LeftFoot	0	0	0	0	0	0	1
LeftToeBase	0	0	0	0	0	0	1
RightUpLeg	0	0	0	0	0	0	1
RightLeg	0	0	0	0	0	0	1
RightFoot	0	0	0	0	0	0	1
RightToeBase	0	0	0	0	0	0	1
[Hips]
189	-6.127903461	1033.345459	22.61461067	-4.047021866	-5.240839481	-2.947228432	1.0
190	-6.091013908	1033.357422	22.46920776	-4.041246891	-5.251067162	-2.942582607	1.0
191	-6.049862862	1033.377197	22.32253647	-4.034985065	-5.260146141	-2.937995195	1.0
192	-6.002203941	1033.392212	22.17289352	-4.025075436	-5.267866611	-2.935401678	1.0
[Spine]
189	0	101.8159943	1.315000057	4.315671921	1.917533636	3.261769295	1.0
190	0	101.8159943	1.315000057	4.345898628	1.915681005	3.269042015	1.0
191	0	101.8159943	1.315000057	4.374584675	1.917219758	3.27551198	1.0
192	0	101.8159943	1.315000057	4.399593353	1.918196321	3.28125	1.0
[Spine1]
189	0	100.8349991	-10.00800037	1.396782041	0.5384808183	1.707585931	1.0
190	0	100.8349991	-10.00800037	1.406436443	0.5378375649	1.709774494	1.0
191	0	100.8349991	-10.00800037	1.415613294	0.5385317206	1.711650729	1.0
192	0	100.8349991	-10.00800037	1.423695564	0.5389561057	1.713273525	1.0
[Spine2]
189	0	91	-13.73399925	1.372151494	0.5613699555	1.707683563	1.0
190	0	91	-13.73399925	1.381811976	0.5607488751	1.709824324	1.0
191	0	91	-13.73399925	1.390998125	0.561455369	1.711649537	1.0
192	0	91	-13.73399925	1.399087906	0.5618892312	1.71323216	1.0
[Neck]
189	0	166.7169952	-25.16200066	6.337233543	-0.221188888	0.2604880035	1.0
190	0	166.7169952	-25.16200066	6.358035564	-0.2231387198	0.2566201091	1.0
191	0	166.7169952	-25.16200066	6.377373219	-0.2258850336	0.2552106977	1.0
192	0	166.7169952	-25.16200066	6.39307642	-0.2272578627	0.2565544546	1.0
[Head]
189	0	96.17900085	16.84999847	-8.918334961	0.9390580058	-0.1639903933	1.0
190	0	96.17900085	16.84999847	-8.908864021	0.9208374619	-0.1526024789	1.0
191	0	96.17900085	16.84999847	-8.89981842	0.9039111733	-0.1404883862	1.0
192	0	96.17900085	16.84999847	-8.886181831	0.8978180289	-0.1304010004	1.0
[LeftEye]
189	30.6760006	64.09500122	92.83599854	0	0	0	1.0
190	30.6760006	64.09500122	92.83599854	0	0	0	1.0
191	30.6760006	64.09500122	92.83599854	0	0	0	1.0
192	30.6760006	64.09500122	92.83599854	0	0	0	1.0
[RightEye]
189	-30.6760006	64.09500122	92.83499908	0	0	0	1.0
190	-30.6760006	64.09500122	92.83499908	0	0	0	1.0
191	-30.6760006	64.09500122	92.83499908	0	0	0	1.0
192	-30.6760006	64.09500122	92.83499908	0	0	0	1.0
[LeftShoulder]
189	45.70400238	109.4599991	-26.28000069	5.043783188	-17.33823586	-13.73936939	1.0
190	45.70400238	109.4599991	-26.28000069	5.045832157	-17.3492794	-13.74588394	1.0
191	45.70400238	109.4599991	-26.28000069	5.047434807	-17.36034584	-13.75001144	1.0
192	45.70400238	109.4599991	-26.28000069	5.049165249	-17.37074661	-13.75507832	1.0
[LeftArm]
189	105.923996	-5.24600029	-22.32099915	19.88934517	-4.229434013	-70.86557007	1.0
190	105.923996	-5.24600029	-22.32099915	19.90252113	-4.254760742	-70.85275269	1.0
191	105.923996	-5.24600029	-22.32099915	19.91596985	-4.282361984	-70.84294128	1.0
192	105.923996	-5.24600029	-22.32099915	19.92716789	-4.303818226	-70.834198	1.0
[LeftForeArm]
189	278.414978	-0.0009999999311	0	2.195098006e-07	-1.863840342	-0.0001929918653	1.0
190	278.414978	-0.0009999999311	0	2.781422609e-06	-1.8630898	-0.0002445433347	1.0
191	278.414978	-0.0009999999311	0	-8.16758984e-06	-1.865117192	-0.0001974189945	1.0
192	278.414978	-0.0009999999311	0	-1.005611466e-05	-1.875553727	-0.0002013807534	1.0
[LeftHand]
189	283.2879944	0	0	-33.69726563	-5.13828373	-3.301805735	1.0
190	283.2879944	0	0	-33.71306229	-5.169111252	-3.287592173	1.0
191	283.2879944	0	0	-33.72326279	-5.19396925	-3.282961845	1.0
192	283.2879944	0	0	-33.73475266	-5.208891392	-3.276751757	1.0
[LeftHandThumb1]
189	24.6609993	-15.75	26.8239994	-0.4889889657	2.201390743	4.818541527	1.0
190	24.6609993	-15.75	26.8239994	-0.4889889657	2.201390743	4.818541527	1.0
191	24.6609993	-15.75	26.8239994	-0.4889889657	2.201390743	4.818541527	1.0
192	24.6609993	-15.75	26.8239994	-0.4889889657	2.201390743	4.818541527	1.0
[LeftHandThumb2]
189	32.29800034	-18.64699936	18.64699936	19.88581276	19.96446037	23.26738167	1.0
190	32.29800034	-18.64699936	18.64699936	19.88581276	19.96446037	23.26738167	1.0
191	32.29800034	-18.64699936	18.64699936	19.88581276	19.96446037	23.26738167	1.0
192	32.29800034	-18.64699936	18.64699936	19.88581276	19.96446037	23.26738167	1.0
[LeftHandThumb3]
189	26.52600098	-15.31499958	15.31499958	-13.14535904	5.551738262	7.967928886	1.0
190	26.52600098	-15.31499958	15.31499958	-13.14535904	5.551738262	7.967928886	1.0
191	26.52600098	-15.31499958	15.31499958	-13.14535904	5.551738262	7.967928886	1.0
192	26.52600098	-15.31499958	15.31499958	-13.14535904	5.551738262	7.967928886	1.0
[LeftHandThumb4]
189	19.54599953	-11.28499985	11.28499985	0	0	0	1.0
190	19.54599953	-11.28499985	11.28499985	0	0	0	1.0
191	19.54599953	-11.28499985	11.28499985	0	0	0	1.0
192	19.54599953	-11.28499985	11.28499985	0	0	0	1.0
[LeftHandIndex1]
189	91.09299469	-5.170999527	22.60099792	0.1480516791	-0.9618676901	-7.594518185	1.0
190	91.09299469	-5.170999527	22.60099792	0.1480516791	-0.9618676901	-7.594518185	1.0
191	91.09299469	-5.170999527	22.60099792	0.1480516791	-0.9618676901	-7.594518185	1.0
192	91.09299469	-5.170999527	22.60099792	0.1480516791	-0.9618676901	-7.594518185	1.0
[LeftHandIndex2]
189	36.76399994	0	0	-0.2667043209	1.745171905	-17.37646866	1.0
190	36.76399994	0	0	-0.2667043209	1.745171905	-17.37646866	1.0
191	36.76399994	0	0	-0.2667043209	1.745171905	-17.37646866	1.0
192	36.76399994	0	0	-0.2667043209	1.745171905	-17.37646866	1.0
[LeftHandIndex3]
189	28.83100128	0	0	-0.05742863193	0.817338407	-8.038370132	1.0
190	28.83100128	0	0	-0.05742863193	0.817338407	-8.038370132	1.0
191	28.83100128	0	0	-0.05742863193	0.817338407	-8.038370132	1.0
192	28.83100128	0	0	-0.05742863193	0.817338407	-8.038370132	1.0
[LeftHandIndex4]
189	23.92700005	0	0	0	0	0	1.0
190	23.92700005	0	0	0	0	0	1.0
191	23.92700005	0	0	0	0	0	1.0
192	23.92700005	0	0	0	0	0	1.0
[LeftHandMiddle1]
189	95.33399963	0	0	-0.7942916155	2.538622379	-15.71737862	1.0
190	95.33399963	0	0	-0.7942916155	2.538622379	-15.71737862	1.0
191	95.33399963	0	0	-0.7942916155	2.538622379	-15.71737862	1.0
192	95.33399963	0	0	-0.7942916155	2.538622379	-15.71737862	1.0
[LeftHandMiddle2]
189	36.98199844	0	0	-0.267610997	1.748071074	-17.40625954	1.0
190	36.98199844	0	0	-0.267610997	1.748071074	-17.40625954	1.0
191	36.98199844	0	0	-0.267610997	1.748071074	-17.40625954	1.0
192	36.98199844	0	0	-0.267610997	1.748071074	-17.40625954	1.0
[LeftHandMiddle3]
189	29.50900078	0	0	-0.2992140949	1.84580946	-18.41413307	1.0
190	29.50900078	0	0	-0.2992140949	1.84580946	-18.41413307	1.0
191	29.50900078	0	0	-0.2992140949	1.84580946	-18.41413307	1.0
192	29.50900078	0	0	-0.2992140949	1.84580946	-18.41413307	1.0
[LeftHandMiddle4]
189	28.3390007	0	0	0	0	0	1.0
190	28.3390007	0	0	0	0	0	1.0
191	28.3390007	0	0	0	0	0	1.0
192	28.3390007	0	0	0	0	0	1.0
[LeftHandRing1]
189	91.04499817	-0.4390000105	-18.65100098	-1.184956431	3.436642885	-21.16632462	1.0
190	91.04499817	-0.4390000105	-18.65100098	-1.184956431	3.436642885	-21.16632462	1.0
191	91.04499817	-0.4390000105	-18.65100098	-1.184956431	3.436642885	-21.16632462	1.0
192	91.04499817	-0.4390000105	-18.65100098	-1.184956431	3.436642885	-21.16632462	1.0
[LeftHandRing2]
189	31.54000092	0	0	-0.3849357069	2.085560799	-20.91281319	1.0
190	31.54000092	0	0	-0.3849357069	2.085560799	-20.91281319	1.0
191	31.54000092	0	0	-0.3849357069	2.085560799	-20.91281319	1.0
192	31.54000092	0	0	-0.3849357069	2.085560799	-20.91281319	1.0
[LeftHandRing3]
189	29.37700081	0	0	-0.2818065584	1.792707562	-17.86576271	1.0
190	29.37700081	0	0	-0.2818065584	1.792707562	-17.86576271	1.0
191	29.37700081	0	0	-0.2818065584	1.792707562	-17.86576271	1.0
192	29.37700081	0	0	-0.2818065584	1.792707562	-17.86576271	1.0
[LeftHandRing4]
189	26.47500038	0	0	0	0	0	1.0
190	26.47500038	0	0	0	0	0	1.0
191	26.47500038	0	0	0	0	0	1.0
192	26.47500038	0	0	0	0	0	1.0
[LeftHandPinky1]
189	80.77799988	-4.887000084	-38.06099701	-1.708467126	5.355370045	-27.1653862	1.0
190	80.77799988	-4.887000084	-38.06099701	-1.708467126	5.355370045	-27.1653862	1.0
191	80.77799988	-4.887000084	-38.06099701	-1.708467126	5.355370045	-27.1653862	1.0
192	80.77799988	-4.887000084	-38.06099701	-1.708467126	5.355370045	-27.1653862	1.0
[LeftHandPinky2]
189	36	0	0	-0.2676221728	1.748113751	-17.40663528	1.0
190	36	0	0	-0.2676221728	1.748113751	-17.40663528	1.0
191	36	0	0	-0.2676221728	1.748113751	-17.40663528	1.0
192	36	0	0	-0.2676221728	1.748113751	-17.40663528	1.0
[LeftHandPinky3]
189	21.14200211	0	0	-0.2408525199	1.660349369	-16.50663185	1.0
190	21.14200211	0	0	-0.2408525199	1.660349369	-16.50663185	1.0
191	21.14200211	0	0	-0.2408525199	1.660349369	-16.50663185	1.0
192	21.14200211	0	0	-0.2408525199	1.660349369	-16.50663185	1.0
[LeftHandPinky4]
189	19.75699997	0	0	0	0	0	1.0
190	19.75699997	0	0	0	0	0	1.0
191	19.75699997	0	0	0	0	0	1.0
192	19.75699997	0	0	0	0	0	1.0
[RightShoulder]
189	-45.70000076	109.4620056	-26.28000069	5.312845707	15.39969254	15.83187962	1.0
190	-45.70000076	109.4620056	-26.28000069	5.31237936	15.41565132	15.82116032	1.0
191	-45.70000076	109.4620056	-26.28000069	5.311347485	15.42677021	15.80969048	1.0
192	-45.70000076	109.4620056	-26.28000069	5.310348034	15.43189335	15.80146408	1.0
[RightArm]
189	-105.9280014	-5.248000145	-22.32099915	29.63524628	1.93781507	62.29843521	1.0
190	-105.9280014	-5.248000145	-22.32099915	29.61275291	1.92718184	62.30229568	1.0
191	-105.9280014	-5.248000145	-22.32099915	29.58586311	1.915403605	62.31157303	1.0
192	-105.9280014	-5.248000145	-22.32099915	29.56031609	1.906416178	62.31910706	1.0
[RightForeArm]
189	-278.414978	0	0	-8.470200555e-06	6.716923237	-4.864925359e-06	1.0
190	-278.414978	0	0	-7.984397598e-06	6.705082893	-3.190292318e-06	1.0
191	-278.414978	0	0	-1.067396443e-05	6.688207626	-1.188530496e-05	1.0
192	-278.414978	0	0	-3.948007361e-06	6.667584896	-3.812079512e-06	1.0
[RightHand]
189	-283.2879944	0	0.0009999999311	-20.59998512	1.707018495	5.71928978	1.0
190	-283.2879944	0	0.0009999999311	-20.59853745	1.703186035	5.676846504	1.0
191	-283.2879944	0	0.0009999999311	-20.60347176	1.705537438	5.628311157	1.0
192	-283.2879944	0	0.0009999999311	-20.6130619	1.721163511	5.583437443	1.0
[RightHandPinky1]
189	-80.76699829	-4.885000229	-38.06000137	-1.507175922	-4.696118355	26.50587463	1.0
190	-80.76699829	-4.885000229	-38.06000137	-1.507175922	-4.696118355	26.50587463	1.0
191	-80.76699829	-4.885000229	-38.06000137	-1.507175922	-4.696118355	26.50587463	1.0
192	-80.76699829	-4.885000229	-38.06000137	-1.507175922	-4.696118355	26.50587463	1.0
[RightHandPinky2]
189	-36	0	0.0009999999311	-0.2127676606	-1.388874292	17.43785858	1.0
190	-36	0	0.0009999999311	-0.2127676606	-1.388874292	17.43785858	1.0
191	-36	0	0.0009999999311	-0.2127676606	-1.388874292	17.43785858	1.0
192	-36	0	0.0009999999311	-0.2127676606	-1.388874292	17.43785858	1.0
[RightHandPinky3]
189	-21.14200211	0	0	-0.1919144988	-1.32059598	16.53641129	1.0
190	-21.14200211	0	0	-0.1919144988	-1.32059598	16.53641129	1.0
191	-21.14200211	0	0	-0.1919144988	-1.32059598	16.53641129	1.0
192	-21.14200211	0	0	-0.1919144988	-1.32059598	16.53641129	1.0
[RightHandPinky4]
189	-19.75699997	0	0	0	0	0	1.0
190	-19.75699997	0	0	0	0	0	1.0
191	-19.75699997	0	0	0	0	0	1.0
192	-19.75699997	0	0	0	0	0	1.0
[RightHandRing1]
189	-91.03599548	-0.4390000105	-18.65100098	-1.045235753	-2.883111477	20.47788429	1.0
190	-91.03599548	-0.4390000105	-18.65100098	-1.045235753	-2.883111477	20.47788429	1.0
191	-91.03599548	-0.4390000105	-18.65100098	-1.045235753	-2.883111477	20.47788429	1.0
192	-91.03599548	-0.4390000105	-18.65100098	-1.045235753	-2.883111477	20.47788429	1.0
[RightHandRing2]
189	-31.54000092	0	0	-0.3066971898	-1.658752441	20.94926834	1.0
190	-31.54000092	0	0	-0.3066971898	-1.658752441	20.94926834	1.0
191	-31.54000092	0	0	-0.3066971898	-1.658752441	20.94926834	1.0
192	-31.54000092	0	0	-0.3066971898	-1.658752441	20.94926834	1.0
[RightHandRing3]
189	-29.37700081	0	0	-0.2245407403	-1.425854325	17.89771652	1.0
190	-29.37700081	0	0	-0.2245407403	-1.425854325	17.89771652	1.0
191	-29.37700081	0	0	-0.2245407403	-1.425854325	17.89771652	1.0
192	-29.37700081	0	0	-0.2245407403	-1.425854325	17.89771652	1.0
[RightHandRing4]
189	-26.47500038	0	0	0	0	0	1.0
190	-26.47500038	0	0	0	0	0	1.0
191	-26.47500038	0	0	0	0	0	1.0
192	-26.47500038	0	0	0	0	0	1.0
[RightHandMiddle1]
189	-95.32500458	0	0	-0.7017197609	-2.087752104	15.0152874	1.0
190	-95.32500458	0	0	-0.7017197609	-2.087752104	15.0152874	1.0
191	-95.32500458	0	0	-0.7017197609	-2.087752104	15.0152874	1.0
192	-95.32500458	0	0	-0.7017197609	-2.087752104	15.0152874	1.0
[RightHandMiddle2]
189	-36.98199844	0	0	-0.213228479	-1.390354872	17.43750381	1.0
190	-36.98199844	0	0	-0.213228479	-1.390354872	17.43750381	1.0
191	-36.98199844	0	0	-0.213228479	-1.390354872	17.43750381	1.0
192	-36.98199844	0	0	-0.213228479	-1.390354872	17.43750381	1.0
[RightHandMiddle3]
189	-29.50900078	0	0	-0.2384106964	-1.470119596	18.44692802	1.0
190	-29.50900078	0	0	-0.2384106964	-1.470119596	18.44692802	1.0
191	-29.50900078	0	0	-0.2384106964	-1.470119596	18.44692802	1.0
192	-29.50900078	0	0	-0.2384106964	-1.470119596	18.44692802	1.0
[RightHandMiddle4]
189	-28.3390007	0	0.0009999999311	0	0	0	1.0
190	-28.3390007	0	0.0009999999311	0	0	0	1.0
191	-28.3390007	0	0.0009999999311	0	0	0	1.0
192	-28.3390007	0	0.0009999999311	0	0	0	1.0
[RightHandIndex1]
189	-91.08300018	-5.167999744	22.60099792	0.1884763837	1.25192976	6.825599194	1.0
190	-91.08300018	-5.167999744	22.60099792	0.1884763837	1.25192976	6.825599194	1.0
191	-91.08300018	-5.167999744	22.60099792	0.1884763837	1.25192976	6.825599194	1.0
192	-91.08300018	-5.167999744	22.60099792	0.1884763837	1.25192976	6.825599194	1.0
[RightHandIndex2]
189	-36.76399994	0	0	-0.2125098109	-1.388050556	17.40767097	1.0
190	-36.76399994	0	0	-0.2125098109	-1.388050556	17.40767097	1.0
191	-36.76399994	0	0	-0.2125098109	-1.388050556	17.40767097	1.0
192	-36.76399994	0	0	-0.2125098109	-1.388050556	17.40767097	1.0
[RightHandIndex3]
189	-28.83100128	0	0	-0.04576345533	-0.650116384	8.053516388	1.0
190	-28.83100128	0	0	-0.04576345533	-0.650116384	8.053516388	1.0
191	-28.83100128	0	0	-0.04576345533	-0.650116384	8.053516388	1.0
192	-28.83100128	0	0	-0.04576345533	-0.650116384	8.053516388	1.0
[RightHandIndex4]
189	-23.92700005	0	0	0	0	0	1.0
190	-23.92700005	0	0	0	0	0	1.0
191	-23.92700005	0	0	0	0	0	1.0
192	-23.92700005	0	0	0	0	0	1.0
[RightHandThumb1]
189	-24.64799881	-15.72700024	26.82600021	-1.658462524	-0.2891407609	-4.221328735	1.0
190	-24.64799881	-15.72700024	26.82600021	-1.658462524	-0.2891407609	-4.221328735	1.0
191	-24.64799881	-15.72700024	26.82600021	-1.658462524	-0.2891407609	-4.221328735	1.0
192	-24.64799881	-15.72700024	26.82600021	-1.658462524	-0.2891407609	-4.221328735	1.0
[RightHandThumb2]
189	-32.29800034	-18.64699936	18.64699936	22.25259209	-23.88967514	-24.282444	1.0
190	-32.29800034	-18.64699936	18.64699936	22.25259209	-23.88967514	-24.282444	1.0
191	-32.29800034	-18.64699936	18.64699936	22.25259209	-23.88967514	-24.282444	1.0
192	-32.29800034	-18.64699936	18.64699936	22.25259209	-23.88967514	-24.282444	1.0
[RightHandThumb3]
189	-26.52600098	-15.31399918	15.31399918	-14.47830296	-6.743862152	-11.36570263	1.0
190	-26.52600098	-15.31399918	15.31399918	-14.47830296	-6.743862152	-11.36570263	1.0
191	-26.52600098	-15.31399918	15.31399918	-14.47830296	-6.743862152	-11.36570263	1.0
192	-26.52600098	-15.31399918	15.31399918	-14.47830296	-6.743862152	-11.36570263	1.0
[RightHandThumb4]
189	-19.54599953	-11.28499985	11.28499985	0	0	0	1.0
190	-19.54599953	-11.28499985	11.28499985	0	0	0	1.0
191	-19.54599953	-11.28499985	11.28499985	0	0	0	1.0
192	-19.54599953	-11.28499985	11.28499985	0	0	0	1.0
[LeftUpLeg]
189	82.07800293	-67.51699829	-15.99599934	-7.225379944	16.69761086	7.896512508	1.0
190	82.07800293	-67.51699829	-15.99599934	-7.227827072	16.68661118	7.881169796	1.0
191	82.07800293	-67.51699829	-15.99599934	-7.229399681	16.68075752	7.867554188	1.0
192	82.07800293	-67.51699829	-15.99599934	-7.238697052	16.67609787	7.856194973	1.0
[LeftLeg]
189	0	-443.7049866	2.845999956	12.32895088	0.2801139355	4.445247173	1.0
190	0	-443.7049866	2.845999956	12.30421925	0.3073461652	4.460092068	1.0
191	0	-443.7049866	2.845999956	12.27641296	0.3318285048	4.469680786	1.0
192	0	-443.7049866	2.845999956	12.25587463	0.3446458578	4.474782467	1.0
[LeftFoot]
189	0	-444.2789917	-29.8219986	0.8629125953	0.6921755672	-7.362895489	1.0
190	0	-444.2789917	-29.8219986	0.8819828629	0.6923442483	-7.358812809	1.0
191	0	-444.2789917	-29.8219986	0.904750824	0.692733705	-7.353836536	1.0
192	0	-444.2789917	-29.8219986	0.9254306555	0.6932925582	-7.350244045	1.0
[LeftToeBase]
189	0	-87.28699493	107.1060028	-4.9202528	4.518684591e-07	1.804153044e-06	1.0
190	0	-87.28699493	107.1060028	-4.917613983	9.155648513e-06	2.072606407e-07	1.0
191	0	-87.28699493	107.1060028	-4.912033558	4.125045962e-06	-9.377561696e-07	1.0
192	0	-87.28699493	107.1060028	-4.907000542	3.348426389e-06	1.119559784e-06	1.0
[RightUpLeg]
189	-82.07800293	-67.51699829	-15.99599934	0.6500537992	-10.70568943	3.166390181	1.0
190	-82.07800293	-67.51699829	-15.99599934	0.6318067908	-10.71409893	3.159148216	1.0
191	-82.07800293	-67.51699829	-15.99599934	0.6171660423	-10.72072887	3.15346694	1.0
192	-82.07800293	-67.51699829	-15.99599934	0.5974280238	-10.72003937	3.153241873	1.0
[RightLeg]
189	0	-443.7049866	2.861999989	9.197340012	-9.156517982	-4.816195488	1.0
190	0	-443.7049866	2.861999989	9.2006073	-9.156326294	-4.812424183	1.0
191	0	-443.7049866	2.861999989	9.194436073	-9.156490326	-4.808870316	1.0
192	0	-443.7049866	2.861999989	9.189652443	-9.156266212	-4.809244633	1.0
[RightFoot]
189	0	-444.2770081	-29.83799934	-5.081777096	-1.300329089	3.303378344	1.0
190	0	-444.2770081	-29.83799934	-5.072332382	-1.282221675	3.298535824	1.0
191	0	-444.2770081	-29.83799934	-5.057948112	-1.272049069	3.293954849	1.0
192	0	-444.2770081	-29.83799934	-5.043612957	-1.271878958	3.291799545	1.0
[RightToeBase]
189	0	-87.28699493	107.1060028	-7.153098106	-8.162781342e-06	7.290195185e-07	1.0
190	0	-87.28699493	107.1060028	-7.154223919	-7.148643817e-06	-2.086467532e-07	1.0
191	0	-87.28699493	107.1060028	-7.153687	-1.224488733e-05	1.571520102e-06	1.0
192	0	-87.28699493	107.1060028	-7.15638876	2.833267672e-06	-4.641253497e-07	1.0
[EndOfFile]
